<svg xmlns="http://www.w3.org/2000/svg" viewBox="0 0 290 190" role="img" aria-labelledby="k3t k3d" preserveAspectRatio="xMidYMid meet">
<title id="k3t">⚙ AUTOMATION project module</title><desc id="k3d">Dashboard card for ⚙ AUTOMATION: Dashboards &amp; scripts — self-running workflows.</desc>
<defs>
<linearGradient id="k3bg" x1="0" y1="0" x2="0" y2="1"><stop offset="0" stop-color="#131A36"/><stop offset="1" stop-color="#0B0E1A"/></linearGradient>
<pattern id="k3gr" width="24" height="24" patternUnits="userSpaceOnUse"><path d="M24 0H0V24" fill="none" stroke="#4D8AFF" stroke-width="0.5" opacity="0.16"/></pattern>
<pattern id="k3sc" width="6" height="4" patternUnits="userSpaceOnUse"><rect width="6" height="1" fill="#00E5FF" opacity="0.05"/></pattern>
<filter id="k3gl" x="-40%" y="-40%" width="180%" height="180%"><feGaussianBlur stdDeviation="2.2" result="b"/><feMerge><feMergeNode in="b"/><feMergeNode in="SourceGraphic"/></feMerge></filter>
</defs>
<path d="M13.5 1.5 H276.5 L288.5 13.5 V176.5 L276.5 188.5 H13.5 L1.5 176.5 V13.5 Z" fill="url(#k3bg)" stroke="#00E5FF" stroke-width="1.5"/>
<path d="M13.5 1.5 H276.5 L288.5 13.5 V176.5 L276.5 188.5 H13.5 L1.5 176.5 V13.5 Z" fill="url(#k3gr)"/>
<path d="M13.5 1.5 H276.5 L288.5 13.5 V176.5 L276.5 188.5 H13.5 L1.5 176.5 V13.5 Z" fill="url(#k3sc)"/>
<path d="M14 1.5 H276" stroke="#00E5FF" stroke-width="3" opacity="0.5"/>
<g transform="translate(20,26)">
<rect width="250" height="70" fill="#0B0E1A" stroke="#4D8AFF" stroke-width="0.8" opacity="0.9"/>
<g transform="translate(50,38)" fill="none" stroke="#00E5FF" stroke-width="1.6">
<circle r="13"/><g stroke-width="2"><path d="M0 -13 v-5 M0 13 v5 M-13 0 h-5 M13 0 h5 M-9 -9 l-4 -4 M9 9 l4 4 M9 -9 l4 -4 M-9 9 l-4 4"/></g>
<animateTransform attributeName="transform" type="rotate" from="0 50 38" to="360 50 38" dur="14s" repeatCount="indefinite"/></g>
<g transform="translate(105,38)" fill="none" stroke="#4D8AFF" stroke-width="1.4">
<circle r="9"/><g stroke-width="1.6"><path d="M0 -9 v-4 M0 9 v4 M-9 0 h-4 M9 0 h4"/></g>
<animateTransform attributeName="transform" type="rotate" from="360 105 38" to="0 105 38" dur="10s" repeatCount="indefinite"/></g>
<g font-family="Consolas, Courier New, monospace" font-size="8" fill="#22E06C">
<text x="140" y="26">▸ job.scheduler OK</text><text x="140" y="42">▸ dash.refresh OK</text><text x="140" y="58">▸ script.daemon OK</text></g>
<text x="14" y="16" font-family="Consolas, Courier New, monospace" font-size="8" letter-spacing="2" fill="#4D8AFF">TASK ENGINE</text>
</g>
<text x="20" y="118" font-family="Consolas, Courier New, monospace" font-size="13" letter-spacing="2" fill="#00E5FF" font-weight="bold">⚙ AUTOMATION</text>
<path d="M20 126 H270" stroke="#4D8AFF" stroke-width="0.6" opacity="0.5"/>
<g font-family="Consolas, Courier New, monospace" font-size="9" fill="#B8C4E8">
<text x="20" y="142">Dashboards &amp; scripts —</text><text x="20" y="156">self-running workflows.</text></g>
<rect x="20" y="166" width="7" height="7" fill="#00E5FF"><animate attributeName="opacity" values="1;0.25;1" dur="2.8s" repeatCount="indefinite"/></rect>
<text x="32" y="173" font-family="Consolas, Courier New, monospace" font-size="8" letter-spacing="2" fill="#00E5FF">STATUS ▸ ACTIVE</text>
<g stroke="#7C3AED" stroke-width="1.5" fill="none" opacity="0.9"><path d="M8 28 v-14 M8 14 h14 M282 162 v14 M282 176 h-14"/></g>
<rect x="140.0" y="182" width="10" height="6" fill="#101530" stroke="#00E5FF" stroke-width="1.2"/>
<rect x="140.0" y="2" width="10" height="6" fill="#101530" stroke="#00E5FF" stroke-width="1.2"/>
</svg>