<svg xmlns="http://www.w3.org/2000/svg" viewBox="0 0 290 190" role="img" aria-labelledby="k2t k2d" preserveAspectRatio="xMidYMid meet">
<title id="k2t">🤖 LOCAL AI project module</title><desc id="k2d">Dashboard card for 🤖 LOCAL AI: Assistant experiments — local model tooling.</desc>
<defs>
<linearGradient id="k2bg" x1="0" y1="0" x2="0" y2="1"><stop offset="0" stop-color="#2a1640"/><stop offset="1" stop-color="#170b26"/></linearGradient>
<pattern id="k2gr" width="24" height="24" patternUnits="userSpaceOnUse"><path d="M24 0H0V24" fill="none" stroke="#ff8c42" stroke-width="0.5" opacity="0.16"/></pattern>
<pattern id="k2sc" width="6" height="4" patternUnits="userSpaceOnUse"><rect width="6" height="1" fill="#00E5FF" opacity="0.05"/></pattern>
<filter id="k2gl" x="-40%" y="-40%" width="180%" height="180%"><feGaussianBlur stdDeviation="2.2" result="b"/><feMerge><feMergeNode in="b"/><feMergeNode in="SourceGraphic"/></feMerge></filter>
</defs>
<path d="M13.5 1.5 H276.5 L288.5 13.5 V176.5 L276.5 188.5 H13.5 L1.5 176.5 V13.5 Z" fill="url(#k2bg)" stroke="#00E5FF" stroke-width="1.5"/>
<path d="M13.5 1.5 H276.5 L288.5 13.5 V176.5 L276.5 188.5 H13.5 L1.5 176.5 V13.5 Z" fill="url(#k2gr)"/>
<path d="M13.5 1.5 H276.5 L288.5 13.5 V176.5 L276.5 188.5 H13.5 L1.5 176.5 V13.5 Z" fill="url(#k2sc)"/>
<path d="M14 1.5 H276" stroke="#ff3ea5" stroke-width="3" opacity="0.5"/>
<g transform="translate(20,26)">
<rect width="250" height="70" fill="#170b26" stroke="#ff8c42" stroke-width="0.8" opacity="0.9"/>
<g fill="none" stroke="#ff8c42" stroke-width="1" opacity="0.5">
<path d="M40 35 L95 18 M40 35 L95 35 M40 35 L95 52 M95 18 L160 27 M95 35 L160 27 M95 52 L160 45 M95 35 L160 45 M160 27 L215 35 M160 45 L215 35"/></g>
<g><circle cx="40" cy="35" r="5" fill="#ff3ea5"/><circle cx="95" cy="18" r="4" fill="#ff8c42"/><circle cx="95" cy="35" r="4" fill="#ff8c42"/><circle cx="95" cy="52" r="4" fill="#ff8c42"/><circle cx="160" cy="27" r="4" fill="#00E5FF"/><circle cx="160" cy="45" r="4" fill="#00E5FF"/><circle cx="215" cy="35" r="5" fill="#FF2D95"><animate attributeName="r" values="4;6;4" dur="3s" repeatCount="indefinite"/></circle></g>
<circle r="2.2" fill="#00E5FF"><animateMotion path="M40 35 L95 35 L160 27 L215 35" dur="3.5s" repeatCount="indefinite"/></circle>
<text x="14" y="16" font-family="Consolas, Courier New, monospace" font-size="8" letter-spacing="2" fill="#ff3ea5">INFERENCE GRAPH</text>
</g>
<text x="20" y="118" font-family="Consolas, Courier New, monospace" font-size="13" letter-spacing="2" fill="#00E5FF" font-weight="bold">🤖 LOCAL AI</text>
<path d="M20 126 H270" stroke="#ff8c42" stroke-width="0.6" opacity="0.5"/>
<g font-family="Consolas, Courier New, monospace" font-size="9" fill="#dcbcd2">
<text x="20" y="142">Assistant experiments —</text><text x="20" y="156">local model tooling.</text></g>
<rect x="20" y="166" width="7" height="7" fill="#ff3ea5"><animate attributeName="opacity" values="1;0.25;1" dur="2.8s" repeatCount="indefinite"/></rect>
<text x="32" y="173" font-family="Consolas, Courier New, monospace" font-size="8" letter-spacing="2" fill="#ff3ea5">STATUS ▸ EXPERIMENTAL</text>
<g stroke="#ff3ea5" stroke-width="1.5" fill="none" opacity="0.9"><path d="M8 28 v-14 M8 14 h14 M282 162 v14 M282 176 h-14"/></g>
<rect x="140.0" y="182" width="10" height="6" fill="#241236" stroke="#00E5FF" stroke-width="1.2"/>
<rect x="140.0" y="2" width="10" height="6" fill="#241236" stroke="#00E5FF" stroke-width="1.2"/>
</svg>