<svg xmlns="http://www.w3.org/2000/svg" viewBox="0 0 880 56" role="img" aria-labelledby="t d" preserveAspectRatio="xMidYMid meet">
<title id="t">Data spine junction</title><desc id="d">Circuit bus connecting sections with a traveling data packet.</desc>
<g stroke="#7C3AED" stroke-width="1" opacity="0.5">
<path d="M60 10 L60 22 L110 22" fill="none"/>
<path d="M820 46 L820 34 L770 34" fill="none"/>
</g>
<path id="bus" d="M20 28 H360 L380 14 H500 L520 28 H860" fill="none" stroke="#00E5FF" stroke-width="1.5" opacity="0.85"/>
<path d="M20 28 H360 L380 14 H500 L520 28 H860" fill="none" stroke="#00E5FF" stroke-width="4" opacity="0.08"/>
<g fill="#101530" stroke="#00E5FF" stroke-width="1.5">
<rect x="14" y="24" width="8" height="8"/>
<rect x="858" y="24" width="8" height="8"/>
</g>
<rect x="436" y="9" width="10" height="10" fill="#101530" stroke="#4D8AFF" stroke-width="1.5" transform="rotate(45 441 14)"/>
<circle cx="441" cy="14" r="2" fill="#4D8AFF"><animate attributeName="opacity" values="1;0.25;1" dur="3s" repeatCount="indefinite"/></circle>
<g stroke="#4D8AFF" stroke-width="1.5" fill="none" opacity="0.8">
<path d="M110 18 v8 M114 18 v8"/>
<path d="M770 30 v8 M766 30 v8"/>
</g>
<g fill="none" stroke="#7C3AED" stroke-width="1.5" opacity="0.7">
<path d="M6 8 h10 M6 8 v10"/>
<path d="M874 48 h-10 M874 48 v-10"/>
</g>
<circle r="3" fill="#00E5FF"><animateMotion dur="9s" repeatCount="indefinite"><mpath href="#bus"/></animateMotion></circle>
<circle r="2" fill="#FF2D95" opacity="0.9"><animateMotion dur="13s" repeatCount="indefinite" keyPoints="1;0" keyTimes="0;1"><mpath href="#bus"/></animateMotion></circle>
</svg>