<svg xmlns="http://www.w3.org/2000/svg" viewBox="0 0 1200 320" width="1200" height="320" role="img" aria-label="Yug Patel - personal command interface hero console"><defs><pattern id="ghero" width="28" height="28" patternUnits="userSpaceOnUse"><path d="M28 0H0V28" fill="none" stroke="#1B2440" stroke-width="0.6" opacity="0.5"/></pattern><pattern id="shero" width="4" height="4" patternUnits="userSpaceOnUse"><rect width="4" height="1" fill="#FFFFFF" opacity="0.02"/></pattern><linearGradient id="swphero" x1="0" y1="0" x2="1" y2="0"><stop offset="0" stop-color="#00E5FF" stop-opacity="0"/><stop offset="0.5" stop-color="#00E5FF" stop-opacity="0.10"/><stop offset="1" stop-color="#00E5FF" stop-opacity="0"/></linearGradient><linearGradient id="hdrhero" x1="0" y1="0" x2="1" y2="0"><stop offset="0" stop-color="#0E1424"/><stop offset="1" stop-color="#0B0E1A"/></linearGradient></defs><rect width="1200" height="320" fill="#0B0E1A"/><rect width="1200" height="320" fill="url(#ghero)" opacity="0.55"/><rect width="1200" height="320" fill="url(#shero)"/><path d="M17 3 H1183 L1197 17 V303 L1183 317 H17 L3 303 V17 Z" fill="none" stroke="#00E5FF" stroke-width="1.6"/><path d="M19 9 H1181 L1191 19 V301 L1181 311 H19 L9 301 V19 Z" fill="none" stroke="#1B2440" stroke-width="0.8"/><path d="M20 34 H1180" stroke="#1B2440" stroke-width="1"/><text x="24" y="26" font-family="Consolas,'Courier New',monospace" font-size="11" fill="#00E5FF" letter-spacing="3" text-anchor="start" font-weight="700">YUG.PATEL // PERSONAL COMMAND INTERFACE</text><text x="1176" y="26" font-family="Consolas,'Courier New',monospace" font-size="11" fill="#22C55E" letter-spacing="2" text-anchor="end" font-weight="700">STATUS: ONLINE</text><circle cx="1040" cy="21" r="3" fill="#22C55E"><animate attributeName="opacity" values="1;0.25;1" dur="2s" repeatCount="indefinite"/></circle><circle cx="1040" cy="21" r="6" fill="none" stroke="#22C55E" stroke-width="0.8" opacity="0.5"/><text x="34" y="120" font-family="Consolas,'Courier New',monospace" font-size="46" fill="#EAF6FF" letter-spacing="8" text-anchor="start" font-weight="700">YUG PATEL</text><rect x="36" y="134" width="330" height="3" fill="#00E5FF"><animate attributeName="opacity" values="1;0.4;1" dur="3s" repeatCount="indefinite"/></rect><text x="36" y="164" font-family="Consolas,'Courier New',monospace" font-size="14" fill="#A78BFA" letter-spacing="3" text-anchor="start" font-weight="400">AI-FIRST DEVELOPER // CS @ ARIZONA STATE UNIVERSITY</text><text x="36" y="190" font-family="Consolas,'Courier New',monospace" font-size="13" fill="#B8C4E0" letter-spacing="1.5" text-anchor="start" font-weight="400">&gt; agentic tooling . automation . shipping useful things</text><rect x="36" y="204" width="9" height="16" fill="#00E5FF"><animate attributeName="opacity" values="1;0;1" dur="1.1s" repeatCount="indefinite"/></rect><path d="M43 238 H259 L266 245 V265 L259 272 H43 L36 265 V245 Z" fill="#0E1424" stroke="#7C3AED" stroke-width="1"/><text x="52" y="260" font-family="Consolas,'Courier New',monospace" font-size="11" fill="#7C3AED" letter-spacing="2" text-anchor="start" font-weight="700">MODE: AI-FIRST</text><circle cx="248" cy="255" r="3" fill="#7C3AED"><animate attributeName="opacity" values="1;0.25;1" dur="2s" repeatCount="indefinite"/></circle><circle cx="248" cy="255" r="6" fill="none" stroke="#7C3AED" stroke-width="0.8" opacity="0.5"/><path d="M293 238 H509 L516 245 V265 L509 272 H293 L286 265 V245 Z" fill="#0E1424" stroke="#00E5FF" stroke-width="1"/><text x="302" y="260" font-family="Consolas,'Courier New',monospace" font-size="11" fill="#00E5FF" letter-spacing="2" text-anchor="start" font-weight="700">LOOP: BUILD-SHIP-REPEAT</text><circle cx="498" cy="255" r="3" fill="#00E5FF"><animate attributeName="opacity" values="1;0.25;1" dur="3s" repeatCount="indefinite"/></circle><circle cx="498" cy="255" r="6" fill="none" stroke="#00E5FF" stroke-width="0.8" opacity="0.5"/><path d="M543 238 H759 L766 245 V265 L759 272 H543 L536 265 V245 Z" fill="#0E1424" stroke="#3B82F6" stroke-width="1"/><text x="552" y="260" font-family="Consolas,'Courier New',monospace" font-size="11" fill="#3B82F6" letter-spacing="2" text-anchor="start" font-weight="700">SECTOR: AZ.US</text><circle cx="748" cy="255" r="3" fill="#3B82F6"><animate attributeName="opacity" values="1;0.25;1" dur="4s" repeatCount="indefinite"/></circle><circle cx="748" cy="255" r="6" fill="none" stroke="#3B82F6" stroke-width="0.8" opacity="0.5"/><path d="M840 52 H1160 L1170 62 V278 L1160 288 H840 L830 278 V62 Z" fill="#0E1424" stroke="#7C3AED" stroke-width="1.2"/><text x="844" y="74" font-family="Consolas,'Courier New',monospace" font-size="11" fill="#A78BFA" letter-spacing="3" text-anchor="start" font-weight="700">PROC.MONITOR</text><path d="M840 84 H1160" stroke="#1B2440" stroke-width="1"/><text x="846" y="108" font-family="Consolas,'Courier New',monospace" font-size="10" fill="#B8C4E0" letter-spacing="1" text-anchor="start" font-weight="400">agent.loop</text><rect x="960" y="98" width="180" height="10" fill="#0B0E1A" stroke="#1B2440" stroke-width="0.7"/><rect x="960" y="98" width="147" height="10" fill="#00E5FF" opacity="0.85"><animate attributeName="width" values="147;115;147" dur="4s" repeatCount="indefinite"/></rect><text x="846" y="142" font-family="Consolas,'Courier New',monospace" font-size="10" fill="#B8C4E0" letter-spacing="1" text-anchor="start" font-weight="400">build.daemon</text><rect x="960" y="132" width="180" height="10" fill="#0B0E1A" stroke="#1B2440" stroke-width="0.7"/><rect x="960" y="132" width="115" height="10" fill="#3B82F6" opacity="0.85"><animate attributeName="width" values="115;82;115" dur="5s" repeatCount="indefinite"/></rect><text x="846" y="176" font-family="Consolas,'Courier New',monospace" font-size="10" fill="#B8C4E0" letter-spacing="1" text-anchor="start" font-weight="400">learn.queue</text><rect x="960" y="166" width="180" height="10" fill="#0B0E1A" stroke="#1B2440" stroke-width="0.7"/><rect x="960" y="166" width="84" height="10" fill="#A78BFA" opacity="0.85"><animate attributeName="width" values="84;52;84" dur="6s" repeatCount="indefinite"/></rect><text x="846" y="210" font-family="Consolas,'Courier New',monospace" font-size="10" fill="#B8C4E0" letter-spacing="1" text-anchor="start" font-weight="400">uplink.svc</text><rect x="960" y="200" width="180" height="10" fill="#0B0E1A" stroke="#1B2440" stroke-width="0.7"/><rect x="960" y="200" width="163" height="10" fill="#7C3AED" opacity="0.85"><animate attributeName="width" values="163;131;163" dur="7s" repeatCount="indefinite"/></rect><polyline points="846.0,247 856.5,253 867.0,245 877.5,237 888.0,256 898.5,255 909.0,231 919.5,240 930.0,254 940.5,246 951.0,239 961.5,256 972.0,241 982.5,251 993.0,256 1003.5,255 1014.0,244 1024.5,244 1035.0,255 1045.5,250 1056.0,255 1066.5,240 1077.0,244 1087.5,256 1098.0,231 1108.5,239 1119.0,254 1129.5,250 1140.0,237 1150.5,237" fill="none" stroke="#00E5FF" stroke-width="1.4" opacity="0.9"><animate attributeName="opacity" values="0.9;0.45;0.9" dur="3.5s" repeatCount="indefinite"/></polyline><text x="846" y="278" font-family="Consolas,'Courier New',monospace" font-size="9" fill="#8B99BB" letter-spacing="1.5" text-anchor="start" font-weight="400">signal.trace // nominal</text><path d="M660 240 H790 V170 H830" fill="none" stroke="#1B2440" stroke-width="1.2"/><circle r="2.2" fill="#00E5FF"><animateMotion dur="4s" begin="0s" repeatCount="indefinite" path="M660 240 H790 V170 H830"/></circle><rect x="6" y="6" width="46" height="308" fill="url(#swphero)" opacity="0.55"><animate attributeName="x" values="6;1148;6" dur="11s" repeatCount="indefinite"/></rect></svg>