<svg xmlns="http://www.w3.org/2000/svg" viewBox="0 0 120 120" role="img" aria-labelledby="t d"><title id="t">Circuit brain</title><desc id="d">Circuit-board brain with pulsing traces.</desc>
<path d="M60 20 C40 20 30 34 32 46 C22 50 22 66 30 72 C28 86 40 96 54 92 L54 100 H66 L66 92 C80 96 92 86 90 72 C98 66 98 50 88 46 C90 34 80 20 60 20 Z" fill="#101530" stroke="#7C3AED" stroke-width="2.5"/>
<g fill="none" stroke="#00E5FF" stroke-width="2" stroke-dasharray="4 6"><path d="M44 40 H58 V56 H72"/><path d="M76 38 V50 H86"/><path d="M36 60 H50 V74"/><path d="M66 78 H80 V64"/>
<animate attributeName="stroke-dashoffset" values="0;-40" dur="4s" repeatCount="indefinite"/></g>
<circle cx="58" cy="56" r="3" fill="#00E5FF"><animate attributeName="opacity" values="1;0.2;1" dur="2s" repeatCount="indefinite"/></circle>
<circle cx="86" cy="50" r="3" fill="#FF2D95"><animate attributeName="opacity" values="0.2;1;0.2" dur="3s" repeatCount="indefinite"/></circle>
<circle cx="50" cy="74" r="3" fill="#4D8AFF"><animate attributeName="opacity" values="1;0.3;1" dur="2.6s" repeatCount="indefinite"/></circle></svg>