<svg xmlns="http://www.w3.org/2000/svg" viewBox="0 0 1200 314" width="1200" height="314" role="img" aria-label="Tech stack inventory panel"><defs><pattern id="ginv" width="28" height="28" patternUnits="userSpaceOnUse"><path d="M28 0H0V28" fill="none" stroke="#3a1f52" stroke-width="0.6" opacity="0.5"/></pattern><pattern id="sinv" width="4" height="4" patternUnits="userSpaceOnUse"><rect width="4" height="1" fill="#FFFFFF" opacity="0.02"/></pattern><linearGradient id="swpinv" x1="0" y1="0" x2="1" y2="0"><stop offset="0" stop-color="#00E5FF" stop-opacity="0"/><stop offset="0.5" stop-color="#00E5FF" stop-opacity="0.10"/><stop offset="1" stop-color="#00E5FF" stop-opacity="0"/></linearGradient><linearGradient id="hdrinv" x1="0" y1="0" x2="1" y2="0"><stop offset="0" stop-color="#1d0f2e"/><stop offset="1" stop-color="#170b26"/></linearGradient></defs><path d="M14 2 H1186 L1198 14 V300 L1186 312 H14 L2 300 V14 Z" fill="#170b26" stroke="#ff3ea5" stroke-width="1.3"/><rect x="2" y="2" width="1196" height="310" fill="url(#ginv)" opacity="0.4"/><text x="24" y="32" font-family="Consolas,'Courier New',monospace" font-size="12" fill="#ff71ce" letter-spacing="3" text-anchor="start" font-weight="700">INVENTORY.SCAN</text><text x="1176" y="32" font-family="Consolas,'Courier New',monospace" font-size="10" fill="#00E5FF" letter-spacing="2" text-anchor="end" font-weight="400">14 UNITS REGISTERED // 0 FAULTS</text><path d="M20 44 H1180" stroke="#3a1f52" stroke-width="1" stroke-dasharray="5 4"/><path d="M31 60 H294 L301 67 V97 L294 104 H31 L24 97 V67 Z" fill="#1d0f2e" stroke="#00E5FF" stroke-width="1"/><rect x="34" y="72" width="4" height="20" fill="#00E5FF" opacity="0.9"/><text x="50" y="80" font-family="Consolas,'Courier New',monospace" font-size="11" fill="#fff1e6" letter-spacing="1.5" text-anchor="start" font-weight="700">TYPESCRIPT</text><rect x="50" y="88" width="217" height="5" fill="#170b26" stroke="#3a1f52" stroke-width="0.5"/><rect x="50" y="88" width="200" height="5" fill="#00E5FF" opacity="0.8"><animate attributeName="opacity" values="0.85;0.4;0.85" dur="3.0s" repeatCount="indefinite"/></rect><circle cx="287" cy="82" r="3" fill="#00E5FF"><animate attributeName="opacity" values="1;0.25;1" dur="2s" repeatCount="indefinite"/></circle><circle cx="287" cy="82" r="6" fill="none" stroke="#00E5FF" stroke-width="0.8" opacity="0.5"/><path d="M322 60 H585 L592 67 V97 L585 104 H322 L315 97 V67 Z" fill="#1d0f2e" stroke="#ffb36b" stroke-width="1"/><rect x="325" y="72" width="4" height="20" fill="#ffb36b" opacity="0.9"/><text x="341" y="80" font-family="Consolas,'Courier New',monospace" font-size="11" fill="#fff1e6" letter-spacing="1.5" text-anchor="start" font-weight="700">JAVASCRIPT</text><rect x="341" y="88" width="217" height="5" fill="#170b26" stroke="#3a1f52" stroke-width="0.5"/><rect x="341" y="88" width="126" height="5" fill="#ffb36b" opacity="0.8"><animate attributeName="opacity" values="0.85;0.4;0.85" dur="3.7s" repeatCount="indefinite"/></rect><circle cx="579" cy="82" r="3" fill="#ffb36b"><animate attributeName="opacity" values="1;0.25;1" dur="3s" repeatCount="indefinite"/></circle><circle cx="579" cy="82" r="6" fill="none" stroke="#ffb36b" stroke-width="0.8" opacity="0.5"/><path d="M614 60 H877 L884 67 V97 L877 104 H614 L607 97 V67 Z" fill="#1d0f2e" stroke="#ff71ce" stroke-width="1"/><rect x="617" y="72" width="4" height="20" fill="#ff71ce" opacity="0.9"/><text x="633" y="80" font-family="Consolas,'Courier New',monospace" font-size="11" fill="#fff1e6" letter-spacing="1.5" text-anchor="start" font-weight="700">PYTHON</text><rect x="633" y="88" width="217" height="5" fill="#170b26" stroke="#3a1f52" stroke-width="0.5"/><rect x="633" y="88" width="198" height="5" fill="#ff71ce" opacity="0.8"><animate attributeName="opacity" values="0.85;0.4;0.85" dur="4.4s" repeatCount="indefinite"/></rect><circle cx="870" cy="82" r="3" fill="#ff71ce"><animate attributeName="opacity" values="1;0.25;1" dur="4s" repeatCount="indefinite"/></circle><circle cx="870" cy="82" r="6" fill="none" stroke="#ff71ce" stroke-width="0.8" opacity="0.5"/><path d="M905 60 H1168 L1175 67 V97 L1168 104 H905 L898 97 V67 Z" fill="#1d0f2e" stroke="#ff3ea5" stroke-width="1"/><rect x="908" y="72" width="4" height="20" fill="#ff3ea5" opacity="0.9"/><text x="924" y="80" font-family="Consolas,'Courier New',monospace" font-size="11" fill="#fff1e6" letter-spacing="1.5" text-anchor="start" font-weight="700">HTML5</text><rect x="924" y="88" width="217" height="5" fill="#170b26" stroke="#3a1f52" stroke-width="0.5"/><rect x="924" y="88" width="200" height="5" fill="#ff3ea5" opacity="0.8"><animate attributeName="opacity" values="0.85;0.4;0.85" dur="5.1s" repeatCount="indefinite"/></rect><circle cx="1162" cy="82" r="3" fill="#ff3ea5"><animate attributeName="opacity" values="1;0.25;1" dur="5s" repeatCount="indefinite"/></circle><circle cx="1162" cy="82" r="6" fill="none" stroke="#ff3ea5" stroke-width="0.8" opacity="0.5"/><path d="M31 116 H294 L301 123 V153 L294 160 H31 L24 153 V123 Z" fill="#1d0f2e" stroke="#00E5FF" stroke-width="1"/><rect x="34" y="128" width="4" height="20" fill="#00E5FF" opacity="0.9"/><text x="50" y="136" font-family="Consolas,'Courier New',monospace" font-size="11" fill="#fff1e6" letter-spacing="1.5" text-anchor="start" font-weight="700">CSS</text><rect x="50" y="144" width="217" height="5" fill="#170b26" stroke="#3a1f52" stroke-width="0.5"/><rect x="50" y="144" width="174" height="5" fill="#00E5FF" opacity="0.8"><animate attributeName="opacity" values="0.85;0.4;0.85" dur="5.8s" repeatCount="indefinite"/></rect><circle cx="287" cy="138" r="3" fill="#00E5FF"><animate attributeName="opacity" values="1;0.25;1" dur="2s" repeatCount="indefinite"/></circle><circle cx="287" cy="138" r="6" fill="none" stroke="#00E5FF" stroke-width="0.8" opacity="0.5"/><path d="M322 116 H585 L592 123 V153 L585 160 H322 L315 153 V123 Z" fill="#1d0f2e" stroke="#ffb36b" stroke-width="1"/><rect x="325" y="128" width="4" height="20" fill="#ffb36b" opacity="0.9"/><text x="341" y="136" font-family="Consolas,'Courier New',monospace" font-size="11" fill="#fff1e6" letter-spacing="1.5" text-anchor="start" font-weight="700">REACT</text><rect x="341" y="144" width="217" height="5" fill="#170b26" stroke="#3a1f52" stroke-width="0.5"/><rect x="341" y="144" width="126" height="5" fill="#ffb36b" opacity="0.8"><animate attributeName="opacity" values="0.85;0.4;0.85" dur="3.0s" repeatCount="indefinite"/></rect><circle cx="579" cy="138" r="3" fill="#ffb36b"><animate attributeName="opacity" values="1;0.25;1" dur="3s" repeatCount="indefinite"/></circle><circle cx="579" cy="138" r="6" fill="none" stroke="#ffb36b" stroke-width="0.8" opacity="0.5"/><path d="M614 116 H877 L884 123 V153 L877 160 H614 L607 153 V123 Z" fill="#1d0f2e" stroke="#ff71ce" stroke-width="1"/><rect x="617" y="128" width="4" height="20" fill="#ff71ce" opacity="0.9"/><text x="633" y="136" font-family="Consolas,'Courier New',monospace" font-size="11" fill="#fff1e6" letter-spacing="1.5" text-anchor="start" font-weight="700">NEXT.JS</text><rect x="633" y="144" width="217" height="5" fill="#170b26" stroke="#3a1f52" stroke-width="0.5"/><rect x="633" y="144" width="150" height="5" fill="#ff71ce" opacity="0.8"><animate attributeName="opacity" values="0.85;0.4;0.85" dur="3.7s" repeatCount="indefinite"/></rect><circle cx="870" cy="138" r="3" fill="#ff71ce"><animate attributeName="opacity" values="1;0.25;1" dur="4s" repeatCount="indefinite"/></circle><circle cx="870" cy="138" r="6" fill="none" stroke="#ff71ce" stroke-width="0.8" opacity="0.5"/><path d="M905 116 H1168 L1175 123 V153 L1168 160 H905 L898 153 V123 Z" fill="#1d0f2e" stroke="#ff3ea5" stroke-width="1"/><rect x="908" y="128" width="4" height="20" fill="#ff3ea5" opacity="0.9"/><text x="924" y="136" font-family="Consolas,'Courier New',monospace" font-size="11" fill="#fff1e6" letter-spacing="1.5" text-anchor="start" font-weight="700">TAILWIND CSS</text><rect x="924" y="144" width="217" height="5" fill="#170b26" stroke="#3a1f52" stroke-width="0.5"/><rect x="924" y="144" width="124" height="5" fill="#ff3ea5" opacity="0.8"><animate attributeName="opacity" values="0.85;0.4;0.85" dur="4.4s" repeatCount="indefinite"/></rect><circle cx="1162" cy="138" r="3" fill="#ff3ea5"><animate attributeName="opacity" values="1;0.25;1" dur="5s" repeatCount="indefinite"/></circle><circle cx="1162" cy="138" r="6" fill="none" stroke="#ff3ea5" stroke-width="0.8" opacity="0.5"/><path d="M31 172 H294 L301 179 V209 L294 216 H31 L24 209 V179 Z" fill="#1d0f2e" stroke="#00E5FF" stroke-width="1"/><rect x="34" y="184" width="4" height="20" fill="#00E5FF" opacity="0.9"/><text x="50" y="192" font-family="Consolas,'Courier New',monospace" font-size="11" fill="#fff1e6" letter-spacing="1.5" text-anchor="start" font-weight="700">NODE.JS</text><rect x="50" y="200" width="217" height="5" fill="#170b26" stroke="#3a1f52" stroke-width="0.5"/><rect x="50" y="200" width="196" height="5" fill="#00E5FF" opacity="0.8"><animate attributeName="opacity" values="0.85;0.4;0.85" dur="5.1s" repeatCount="indefinite"/></rect><circle cx="287" cy="194" r="3" fill="#00E5FF"><animate attributeName="opacity" values="1;0.25;1" dur="2s" repeatCount="indefinite"/></circle><circle cx="287" cy="194" r="6" fill="none" stroke="#00E5FF" stroke-width="0.8" opacity="0.5"/><path d="M322 172 H585 L592 179 V209 L585 216 H322 L315 209 V179 Z" fill="#1d0f2e" stroke="#ffb36b" stroke-width="1"/><rect x="325" y="184" width="4" height="20" fill="#ffb36b" opacity="0.9"/><text x="341" y="192" font-family="Consolas,'Courier New',monospace" font-size="11" fill="#fff1e6" letter-spacing="1.5" text-anchor="start" font-weight="700">MYSQL</text><rect x="341" y="200" width="217" height="5" fill="#170b26" stroke="#3a1f52" stroke-width="0.5"/><rect x="341" y="200" width="137" height="5" fill="#ffb36b" opacity="0.8"><animate attributeName="opacity" values="0.85;0.4;0.85" dur="5.8s" repeatCount="indefinite"/></rect><circle cx="579" cy="194" r="3" fill="#ffb36b"><animate attributeName="opacity" values="1;0.25;1" dur="3s" repeatCount="indefinite"/></circle><circle cx="579" cy="194" r="6" fill="none" stroke="#ffb36b" stroke-width="0.8" opacity="0.5"/><path d="M614 172 H877 L884 179 V209 L877 216 H614 L607 209 V179 Z" fill="#1d0f2e" stroke="#ff71ce" stroke-width="1"/><rect x="617" y="184" width="4" height="20" fill="#ff71ce" opacity="0.9"/><text x="633" y="192" font-family="Consolas,'Courier New',monospace" font-size="11" fill="#fff1e6" letter-spacing="1.5" text-anchor="start" font-weight="700">GIT</text><rect x="633" y="200" width="217" height="5" fill="#170b26" stroke="#3a1f52" stroke-width="0.5"/><rect x="633" y="200" width="159" height="5" fill="#ff71ce" opacity="0.8"><animate attributeName="opacity" values="0.85;0.4;0.85" dur="3.0s" repeatCount="indefinite"/></rect><circle cx="870" cy="194" r="3" fill="#ff71ce"><animate attributeName="opacity" values="1;0.25;1" dur="4s" repeatCount="indefinite"/></circle><circle cx="870" cy="194" r="6" fill="none" stroke="#ff71ce" stroke-width="0.8" opacity="0.5"/><path d="M905 172 H1168 L1175 179 V209 L1168 216 H905 L898 209 V179 Z" fill="#1d0f2e" stroke="#ff3ea5" stroke-width="1"/><rect x="908" y="184" width="4" height="20" fill="#ff3ea5" opacity="0.9"/><text x="924" y="192" font-family="Consolas,'Courier New',monospace" font-size="11" fill="#fff1e6" letter-spacing="1.5" text-anchor="start" font-weight="700">GITHUB</text><rect x="924" y="200" width="217" height="5" fill="#170b26" stroke="#3a1f52" stroke-width="0.5"/><rect x="924" y="200" width="176" height="5" fill="#ff3ea5" opacity="0.8"><animate attributeName="opacity" values="0.85;0.4;0.85" dur="3.7s" repeatCount="indefinite"/></rect><circle cx="1162" cy="194" r="3" fill="#ff3ea5"><animate attributeName="opacity" values="1;0.25;1" dur="5s" repeatCount="indefinite"/></circle><circle cx="1162" cy="194" r="6" fill="none" stroke="#ff3ea5" stroke-width="0.8" opacity="0.5"/><path d="M31 228 H294 L301 235 V265 L294 272 H31 L24 265 V235 Z" fill="#1d0f2e" stroke="#00E5FF" stroke-width="1"/><rect x="34" y="240" width="4" height="20" fill="#00E5FF" opacity="0.9"/><text x="50" y="248" font-family="Consolas,'Courier New',monospace" font-size="11" fill="#fff1e6" letter-spacing="1.5" text-anchor="start" font-weight="700">VS CODE</text><rect x="50" y="256" width="217" height="5" fill="#170b26" stroke="#3a1f52" stroke-width="0.5"/><rect x="50" y="256" width="139" height="5" fill="#00E5FF" opacity="0.8"><animate attributeName="opacity" values="0.85;0.4;0.85" dur="4.4s" repeatCount="indefinite"/></rect><circle cx="287" cy="250" r="3" fill="#00E5FF"><animate attributeName="opacity" values="1;0.25;1" dur="2s" repeatCount="indefinite"/></circle><circle cx="287" cy="250" r="6" fill="none" stroke="#00E5FF" stroke-width="0.8" opacity="0.5"/><path d="M322 228 H585 L592 235 V265 L585 272 H322 L315 265 V235 Z" fill="#1d0f2e" stroke="#ffb36b" stroke-width="1"/><rect x="325" y="240" width="4" height="20" fill="#ffb36b" opacity="0.9"/><text x="341" y="248" font-family="Consolas,'Courier New',monospace" font-size="11" fill="#fff1e6" letter-spacing="1.5" text-anchor="start" font-weight="700">VERCEL</text><rect x="341" y="256" width="217" height="5" fill="#170b26" stroke="#3a1f52" stroke-width="0.5"/><rect x="341" y="256" width="194" height="5" fill="#ffb36b" opacity="0.8"><animate attributeName="opacity" values="0.85;0.4;0.85" dur="5.1s" repeatCount="indefinite"/></rect><circle cx="579" cy="250" r="3" fill="#ffb36b"><animate attributeName="opacity" values="1;0.25;1" dur="3s" repeatCount="indefinite"/></circle><circle cx="579" cy="250" r="6" fill="none" stroke="#ffb36b" stroke-width="0.8" opacity="0.5"/><rect x="6" y="50" width="46" height="254" fill="url(#swpinv)" opacity="0.55"><animate attributeName="x" values="6;1148;6" dur="12s" repeatCount="indefinite"/></rect><defs><linearGradient id="duskf" x1="0" y1="0" x2="0" y2="1"><stop offset="0" stop-color="#f97b4f" stop-opacity="0"/><stop offset="1" stop-color="#f97b4f" stop-opacity="0.16"/></linearGradient></defs><g><rect x="6" y="268" width="1188" height="40" fill="url(#duskf)"/><g transform="translate(6,308) scale(1.9800,1)"><path d="M0 0 L0 -8 H36 V-14 H54 V-8 H98 V-18 H128 V-8 H180 V-22 H204 V-8 H264 V-14 H304 V-6 H320 V-14 H378 V-8 H448 V-20 H482 V-8 H530 V-16 H556 V-8 H600 L600 0 Z" fill="#0c0616" opacity="0.4"/><rect x="108" y="-13" width="5" height="3" fill="#ff8c42" opacity="0.5"/><rect x="456" y="-15" width="5" height="3" fill="#00E5FF" opacity="0.45"/></g></g></svg>