<svg xmlns="http://www.w3.org/2000/svg" viewBox="0 0 1200 110" width="1200" height="110" role="img" aria-label="Telemetry feed strip"><defs><pattern id="gtm" width="28" height="28" patternUnits="userSpaceOnUse"><path d="M28 0H0V28" fill="none" stroke="#1B2440" stroke-width="0.6" opacity="0.5"/></pattern><pattern id="stm" width="4" height="4" patternUnits="userSpaceOnUse"><rect width="4" height="1" fill="#FFFFFF" opacity="0.02"/></pattern><linearGradient id="swptm" x1="0" y1="0" x2="1" y2="0"><stop offset="0" stop-color="#00E5FF" stop-opacity="0"/><stop offset="0.5" stop-color="#00E5FF" stop-opacity="0.10"/><stop offset="1" stop-color="#00E5FF" stop-opacity="0"/></linearGradient><linearGradient id="hdrtm" x1="0" y1="0" x2="1" y2="0"><stop offset="0" stop-color="#0E1424"/><stop offset="1" stop-color="#0B0E1A"/></linearGradient></defs><path d="M12 2 H1188 L1198 12 V98 L1188 108 H12 L2 98 V12 Z" fill="#0B0E1A" stroke="#00E5FF" stroke-width="1.2"/><rect x="2" y="2" width="1196" height="106" fill="url(#gtm)" opacity="0.45"/><text x="24" y="30" font-family="Consolas,'Courier New',monospace" font-size="11" fill="#00E5FF" letter-spacing="3" text-anchor="start" font-weight="700">TELEMETRY.FEED</text><text x="24" y="50" font-family="Consolas,'Courier New',monospace" font-size="10" fill="#8B99BB" letter-spacing="1.5" text-anchor="start" font-weight="400">sampling github runtime metrics...</text><polyline points="300,67 316,38 332,55 348,39 364,63 380,68 396,38 412,62 428,51 444,68 460,39 476,70 492,38 508,71 524,61 540,43 556,40 572,47 588,54 604,45 620,45 636,51 652,55 668,59 684,63 700,59 716,69 732,38" fill="none" stroke="#00E5FF" stroke-width="1.4"/><path d="M300 82 H732" stroke="#1B2440" stroke-width="1"/><circle r="2.5" fill="#7C3AED"><animateMotion dur="6s" begin="0s" repeatCount="indefinite" path="M300 78 H732"/></circle><circle cx="880" cy="55" r="14" fill="none" stroke="#1B2440" stroke-width="0.8"/><circle cx="880" cy="55" r="26" fill="none" stroke="#1B2440" stroke-width="0.8"/><circle cx="880" cy="55" r="38" fill="none" stroke="#1B2440" stroke-width="0.8"/><path d="M880 55 L918 55" stroke="#00E5FF" stroke-width="1.5" opacity="0.9"><animateTransform attributeName="transform" type="rotate" from="0 880 55" to="360 880 55" dur="6s" repeatCount="indefinite"/></path><circle cx="902" cy="41" r="3" fill="#7C3AED"><animate attributeName="opacity" values="1;0.25;1" dur="3s" repeatCount="indefinite"/></circle><circle cx="902" cy="41" r="6" fill="none" stroke="#7C3AED" stroke-width="0.8" opacity="0.5"/><text x="1170" y="40" font-family="Consolas,'Courier New',monospace" font-size="10" fill="#A78BFA" letter-spacing="2" text-anchor="end" font-weight="700">GRAPH.FEED: LIVE</text><text x="1170" y="60" font-family="Consolas,'Courier New',monospace" font-size="9" fill="#8B99BB" letter-spacing="1.5" text-anchor="end" font-weight="400">UNITS: COMMITS / STARS</text><rect x="6" y="6" width="46" height="98" fill="url(#swptm)" opacity="0.55"><animate attributeName="x" values="6;1148;6" dur="9s" repeatCount="indefinite"/></rect></svg>