<svg xmlns="http://www.w3.org/2000/svg" viewBox="0 0 460 220" role="img" aria-labelledby="pct pcd" preserveAspectRatio="xMidYMid meet">
<title id="pct">Tech arsenal core panel</title><desc id="pcd">Rotating power core wired into a grid of hardware chips.</desc>
<defs>
<linearGradient id="pcbg" x1="0" y1="0" x2="0" y2="1"><stop offset="0" stop-color="#2a1640"/><stop offset="1" stop-color="#170b26"/></linearGradient>
<pattern id="pcgr" width="24" height="24" patternUnits="userSpaceOnUse"><path d="M24 0H0V24" fill="none" stroke="#ff8c42" stroke-width="0.5" opacity="0.16"/></pattern>
<pattern id="pcsc" width="6" height="4" patternUnits="userSpaceOnUse"><rect width="6" height="1" fill="#00E5FF" opacity="0.05"/></pattern>
<filter id="pcgl" x="-40%" y="-40%" width="180%" height="180%"><feGaussianBlur stdDeviation="2.2" result="b"/><feMerge><feMergeNode in="b"/><feMergeNode in="SourceGraphic"/></feMerge></filter>
</defs>
<path d="M15.5 1.5 H444.5 L458.5 15.5 V204.5 L444.5 218.5 H15.5 L1.5 204.5 V15.5 Z" fill="url(#pcbg)" stroke="#00E5FF" stroke-width="1.5"/>
<path d="M15.5 1.5 H444.5 L458.5 15.5 V204.5 L444.5 218.5 H15.5 L1.5 204.5 V15.5 Z" fill="url(#pcgr)"/>
<path d="M15.5 1.5 H444.5 L458.5 15.5 V204.5 L444.5 218.5 H15.5 L1.5 204.5 V15.5 Z" fill="url(#pcsc)"/>
<path d="M15.5 1.5 H444.5" stroke="#00E5FF" stroke-width="3" opacity="0.35"/>
<g fill="none" stroke="#ff3ea5" stroke-width="1.5" opacity="0.8">
<path d="M8 194 v18 M8 212 h18"/><path d="M452 26 v-18 M452 8 h-18"/>
</g>
<g transform="translate(14,4)"><rect width="76.60000000000001" height="16" fill="#170b26" stroke="#00E5FF" stroke-width="1"/>
<text x="38.300000000000004" y="12" font-family="Consolas, Courier New, monospace" font-size="10" letter-spacing="2" fill="#00E5FF" text-anchor="middle">TECH.CORE</text></g>
<text x="446" y="15" font-family="Consolas, Courier New, monospace" font-size="8" letter-spacing="1" fill="#ff8c42" text-anchor="end" opacity="0.9">ARSENAL//HW</text>
<rect x="434" y="206" width="6" height="6" fill="#22E06C"><animate attributeName="opacity" values="1;0.2;1" dur="2.6s" repeatCount="indefinite"/></rect>
<text x="428" y="212" font-family="Consolas, Courier New, monospace" font-size="7" fill="#22E06C" text-anchor="end" letter-spacing="1">ONLINE</text>
<g fill="none" stroke="#00E5FF" stroke-width="1.6" filter="url(#pcgl)">
<circle cx="130" cy="118" r="52"/>
<circle cx="130" cy="118" r="40" stroke-dasharray="14 8" opacity="0.6">
<animateTransform attributeName="transform" type="rotate" from="0 130 118" to="360 130 118" dur="16s" repeatCount="indefinite"/></circle>
<circle cx="130" cy="118" r="27" stroke="#ff3ea5" stroke-dasharray="6 6" opacity="0.7">
<animateTransform attributeName="transform" type="rotate" from="360 130 118" to="0 130 118" dur="12s" repeatCount="indefinite"/></circle>
</g>
<rect x="118" y="106" width="24" height="24" fill="#241236" stroke="#FF2D95" stroke-width="1.5" transform="rotate(45 130 118)"/>
<circle cx="130" cy="118" r="4" fill="#00E5FF"><animate attributeName="r" values="3;5.4;3" dur="3s" repeatCount="indefinite"/></circle>
<path d="M182 118 h40 v-38 h36" fill="none" stroke="#00E5FF" stroke-width="1.5"/>
<path d="M182 130 h30 v52 h46" fill="none" stroke="#ff8c42" stroke-width="1.5" opacity="0.7"/>
<circle r="2.4" fill="#00E5FF"><animateMotion path="M182 118 h40 v-38 h36" dur="4s" repeatCount="indefinite"/></circle>
<circle r="2.4" fill="#22E06C"><animateMotion path="M182 130 h30 v52 h46" dur="5s" repeatCount="indefinite"/></circle>
<g transform="translate(268,52)"><rect width="40" height="34" fill="#170b26" stroke="#ff8c42" stroke-width="1"/><rect x="8" y="7" width="24" height="20" fill="none" stroke="#00E5FF" stroke-width="1" opacity="0.75"/><g stroke="#ff8c42" stroke-width="1" opacity="0.7"><path d="M6 -4 v4 M20 -4 v4 M34 -4 v4 M6 34 v4 M20 34 v4 M34 34 v4"/></g></g><g transform="translate(326,52)"><rect width="40" height="34" fill="#170b26" stroke="#ff8c42" stroke-width="1"/><rect x="8" y="7" width="24" height="20" fill="none" stroke="#00E5FF" stroke-width="1" opacity="0.75"/><g stroke="#ff8c42" stroke-width="1" opacity="0.7"><path d="M6 -4 v4 M20 -4 v4 M34 -4 v4 M6 34 v4 M20 34 v4 M34 34 v4"/></g></g><g transform="translate(384,52)"><rect width="40" height="34" fill="#170b26" stroke="#ff8c42" stroke-width="1"/><rect x="8" y="7" width="24" height="20" fill="none" stroke="#00E5FF" stroke-width="1" opacity="0.75"/><g stroke="#ff8c42" stroke-width="1" opacity="0.7"><path d="M6 -4 v4 M20 -4 v4 M34 -4 v4 M6 34 v4 M20 34 v4 M34 34 v4"/></g></g><g transform="translate(268,104)"><rect width="40" height="34" fill="#170b26" stroke="#ff8c42" stroke-width="1"/><rect x="8" y="7" width="24" height="20" fill="none" stroke="#00E5FF" stroke-width="1" opacity="0.75"/><g stroke="#ff8c42" stroke-width="1" opacity="0.7"><path d="M6 -4 v4 M20 -4 v4 M34 -4 v4 M6 34 v4 M20 34 v4 M34 34 v4"/></g></g><g transform="translate(326,104)"><rect width="40" height="34" fill="#170b26" stroke="#ff8c42" stroke-width="1"/><rect x="8" y="7" width="24" height="20" fill="none" stroke="#00E5FF" stroke-width="1" opacity="0.75"/><g stroke="#ff8c42" stroke-width="1" opacity="0.7"><path d="M6 -4 v4 M20 -4 v4 M34 -4 v4 M6 34 v4 M20 34 v4 M34 34 v4"/></g></g><g transform="translate(384,104)"><rect width="40" height="34" fill="#170b26" stroke="#ff8c42" stroke-width="1"/><rect x="8" y="7" width="24" height="20" fill="none" stroke="#00E5FF" stroke-width="1" opacity="0.75"/><g stroke="#ff8c42" stroke-width="1" opacity="0.7"><path d="M6 -4 v4 M20 -4 v4 M34 -4 v4 M6 34 v4 M20 34 v4 M34 34 v4"/></g></g><g transform="translate(268,156)"><rect width="40" height="34" fill="#170b26" stroke="#ff8c42" stroke-width="1"/><rect x="8" y="7" width="24" height="20" fill="none" stroke="#00E5FF" stroke-width="1" opacity="0.75"/><g stroke="#ff8c42" stroke-width="1" opacity="0.7"><path d="M6 -4 v4 M20 -4 v4 M34 -4 v4 M6 34 v4 M20 34 v4 M34 34 v4"/></g></g><g transform="translate(326,156)"><rect width="40" height="34" fill="#170b26" stroke="#ff8c42" stroke-width="1"/><rect x="8" y="7" width="24" height="20" fill="none" stroke="#00E5FF" stroke-width="1" opacity="0.75"/><g stroke="#ff8c42" stroke-width="1" opacity="0.7"><path d="M6 -4 v4 M20 -4 v4 M34 -4 v4 M6 34 v4 M20 34 v4 M34 34 v4"/></g></g><g transform="translate(384,156)"><rect width="40" height="34" fill="#170b26" stroke="#ff8c42" stroke-width="1"/><rect x="8" y="7" width="24" height="20" fill="none" stroke="#00E5FF" stroke-width="1" opacity="0.75"/><g stroke="#ff8c42" stroke-width="1" opacity="0.7"><path d="M6 -4 v4 M20 -4 v4 M34 -4 v4 M6 34 v4 M20 34 v4 M34 34 v4"/></g></g>
<text x="130" y="196" font-family="Consolas, Courier New, monospace" font-size="8" letter-spacing="3" fill="#ff8c42" text-anchor="middle">POWER CORE ▸ STABLE</text>
<defs><linearGradient id="duskf" x1="0" y1="0" x2="0" y2="1"><stop offset="0" stop-color="#f97b4f" stop-opacity="0"/><stop offset="1" stop-color="#f97b4f" stop-opacity="0.16"/></linearGradient></defs><g><rect x="6" y="174" width="448" height="40" fill="url(#duskf)"/><g transform="translate(6,214) scale(0.7467,1)"><path d="M0 0 L0 -8 H36 V-14 H54 V-8 H98 V-18 H128 V-8 H180 V-22 H204 V-8 H264 V-14 H304 V-6 H320 V-14 H378 V-8 H448 V-20 H482 V-8 H530 V-16 H556 V-8 H600 L600 0 Z" fill="#0c0616" opacity="0.4"/><rect x="108" y="-13" width="5" height="3" fill="#ff8c42" opacity="0.5"/><rect x="456" y="-15" width="5" height="3" fill="#00E5FF" opacity="0.45"/></g></g></svg>