<svg xmlns="http://www.w3.org/2000/svg" viewBox="0 0 1200 250" width="1200" height="250" role="img" aria-label="About terminal: identity, mission and focus"><defs><pattern id="gabt" width="28" height="28" patternUnits="userSpaceOnUse"><path d="M28 0H0V28" fill="none" stroke="#3a1f52" stroke-width="0.6" opacity="0.5"/></pattern><pattern id="sabt" width="4" height="4" patternUnits="userSpaceOnUse"><rect width="4" height="1" fill="#FFFFFF" opacity="0.02"/></pattern><linearGradient id="swpabt" x1="0" y1="0" x2="1" y2="0"><stop offset="0" stop-color="#00E5FF" stop-opacity="0"/><stop offset="0.5" stop-color="#00E5FF" stop-opacity="0.10"/><stop offset="1" stop-color="#00E5FF" stop-opacity="0"/></linearGradient><linearGradient id="hdrabt" x1="0" y1="0" x2="1" y2="0"><stop offset="0" stop-color="#1d0f2e"/><stop offset="1" stop-color="#170b26"/></linearGradient></defs><path d="M14 2 H1186 L1198 14 V236 L1186 248 H14 L2 236 V14 Z" fill="#170b26" stroke="#00E5FF" stroke-width="1.3"/><rect x="2" y="2" width="1196" height="246" fill="url(#gabt)" opacity="0.45"/><rect x="2" y="2" width="1196" height="36" fill="#1d0f2e"/><path d="M2 38 H1198" stroke="#00E5FF" stroke-width="1"/><circle cx="24" cy="20" r="5.5" fill="#FF5F56"/><circle cx="44" cy="20" r="5.5" fill="#FFBD2E"/><circle cx="64" cy="20" r="5.5" fill="#22C55E"/><text x="600.0" y="24" font-family="Consolas,'Courier New',monospace" font-size="12" fill="#dcbcd2" letter-spacing="1.5" text-anchor="middle" font-weight="400">operator@yugpatel:~/identity</text><text x="1180" y="24" font-family="Consolas,'Courier New',monospace" font-size="10" fill="#c9a0bf" letter-spacing="2" text-anchor="end" font-weight="400">TTY.01</text><text x="28" y="66" font-family="Consolas,'Courier New',monospace" font-size="13" fill="#22C55E" letter-spacing="0.5" text-anchor="start" font-weight="400">&gt; whoami</text><text x="28" y="94" font-family="Consolas,'Courier New',monospace" font-size="13" fill="#dcbcd2" letter-spacing="0.5" text-anchor="start" font-weight="400">  yug.patel - computer science student @ arizona state university</text><text x="28" y="122" font-family="Consolas,'Courier New',monospace" font-size="13" fill="#22C55E" letter-spacing="0.5" text-anchor="start" font-weight="400">&gt; cat mission.txt</text><text x="28" y="150" font-family="Consolas,'Courier New',monospace" font-size="13" fill="#dcbcd2" letter-spacing="0.5" text-anchor="start" font-weight="400">  build ai-first developer tooling. automate the boring. ship real, useful software.</text><text x="28" y="178" font-family="Consolas,'Courier New',monospace" font-size="13" fill="#22C55E" letter-spacing="0.5" text-anchor="start" font-weight="400">&gt; cat focus.txt</text><text x="28" y="206" font-family="Consolas,'Courier New',monospace" font-size="13" fill="#dcbcd2" letter-spacing="0.5" text-anchor="start" font-weight="400">  agentic workflows / web engineering / systems that run while i sleep</text><rect x="28" y="222" width="9" height="15" fill="#00E5FF"><animate attributeName="opacity" values="1;0;1" dur="1s" repeatCount="indefinite"/></rect><text x="1180" y="234" font-family="Consolas,'Courier New',monospace" font-size="9" fill="#c9a0bf" letter-spacing="1.5" text-anchor="end" font-weight="400">session persistent // no idle timeout</text><rect x="6" y="42" width="46" height="198" fill="url(#swpabt)" opacity="0.55"><animate attributeName="x" values="6;1148;6" dur="10s" repeatCount="indefinite"/></rect><defs><linearGradient id="duskf" x1="0" y1="0" x2="0" y2="1"><stop offset="0" stop-color="#f97b4f" stop-opacity="0"/><stop offset="1" stop-color="#f97b4f" stop-opacity="0.16"/></linearGradient></defs><g><rect x="6" y="204" width="1188" height="40" fill="url(#duskf)"/><g transform="translate(6,244) scale(1.9800,1)"><path d="M0 0 L0 -8 H36 V-14 H54 V-8 H98 V-18 H128 V-8 H180 V-22 H204 V-8 H264 V-14 H304 V-6 H320 V-14 H378 V-8 H448 V-20 H482 V-8 H530 V-16 H556 V-8 H600 L600 0 Z" fill="#0c0616" opacity="0.4"/><rect x="108" y="-13" width="5" height="3" fill="#ff8c42" opacity="0.5"/><rect x="456" y="-15" width="5" height="3" fill="#00E5FF" opacity="0.45"/></g></g></svg>