<svg xmlns="http://www.w3.org/2000/svg" viewBox="0 0 1200 150" width="1200" height="150" role="img" aria-label="Uplink communication console"><defs><pattern id="gup" width="28" height="28" patternUnits="userSpaceOnUse"><path d="M28 0H0V28" fill="none" stroke="#1B2440" stroke-width="0.6" opacity="0.5"/></pattern><pattern id="sup" width="4" height="4" patternUnits="userSpaceOnUse"><rect width="4" height="1" fill="#FFFFFF" opacity="0.02"/></pattern><linearGradient id="swpup" x1="0" y1="0" x2="1" y2="0"><stop offset="0" stop-color="#00E5FF" stop-opacity="0"/><stop offset="0.5" stop-color="#00E5FF" stop-opacity="0.10"/><stop offset="1" stop-color="#00E5FF" stop-opacity="0"/></linearGradient><linearGradient id="hdrup" x1="0" y1="0" x2="1" y2="0"><stop offset="0" stop-color="#0E1424"/><stop offset="1" stop-color="#0B0E1A"/></linearGradient></defs><path d="M14 2 H1186 L1198 14 V136 L1186 148 H14 L2 136 V14 Z" fill="#0B0E1A" stroke="#7C3AED" stroke-width="1.3"/><rect x="2" y="2" width="1196" height="146" fill="url(#gup)" opacity="0.4"/><text x="24" y="34" font-family="Consolas,'Courier New',monospace" font-size="12" fill="#A78BFA" letter-spacing="3" text-anchor="start" font-weight="700">UPLINK.CONSOLE</text><text x="24" y="56" font-family="Consolas,'Courier New',monospace" font-size="10" fill="#8B99BB" letter-spacing="1.5" text-anchor="start" font-weight="400">open channels below // response time: human-scale</text><path d="M1080 118 V70 L1066 44 M1080 70 L1094 44" stroke="#00E5FF" stroke-width="1.6" fill="none"/><circle cx="1080" cy="38" r="10" fill="none" stroke="#00E5FF" stroke-width="1" opacity="0.7"><animate attributeName="opacity" values="0.8;0.1;0.8" dur="3s" begin="0.0s" repeatCount="indefinite"/></circle><circle cx="1080" cy="38" r="20" fill="none" stroke="#00E5FF" stroke-width="1" opacity="0.7"><animate attributeName="opacity" values="0.8;0.1;0.8" dur="3s" begin="0.5s" repeatCount="indefinite"/></circle><circle cx="1080" cy="38" r="30" fill="none" stroke="#00E5FF" stroke-width="1" opacity="0.7"><animate attributeName="opacity" values="0.8;0.1;0.8" dur="3s" begin="1.0s" repeatCount="indefinite"/></circle><path d="M48 76 H302 L310 84 V118 L302 126 H48 L40 118 V84 Z" fill="#0E1424" stroke="#00E5FF" stroke-width="1.1"/><text x="58" y="98" font-family="Consolas,'Courier New',monospace" font-size="13" fill="#00E5FF" letter-spacing="3" text-anchor="start" font-weight="700">MAIL</text><text x="58" y="116" font-family="Consolas,'Courier New',monospace" font-size="9" fill="#8B99BB" letter-spacing="1.5" text-anchor="start" font-weight="400">mail.channel</text><circle cx="288" cy="100" r="3" fill="#00E5FF"><animate attributeName="opacity" values="1;0.25;1" dur="2s" repeatCount="indefinite"/></circle><circle cx="288" cy="100" r="6" fill="none" stroke="#00E5FF" stroke-width="0.8" opacity="0.5"/><path d="M350 101 H380" stroke="#1B2440" stroke-width="1.2" stroke-dasharray="4 3"/><circle r="2" fill="#00E5FF"><animateMotion dur="2.5s" begin="0s" repeatCount="indefinite" path="M350 101 H380"/></circle><path d="M348 76 H602 L610 84 V118 L602 126 H348 L340 118 V84 Z" fill="#0E1424" stroke="#3B82F6" stroke-width="1.1"/><text x="358" y="98" font-family="Consolas,'Courier New',monospace" font-size="13" fill="#3B82F6" letter-spacing="3" text-anchor="start" font-weight="700">GITHUB</text><text x="358" y="116" font-family="Consolas,'Courier New',monospace" font-size="9" fill="#8B99BB" letter-spacing="1.5" text-anchor="start" font-weight="400">repo.uplink</text><circle cx="588" cy="100" r="3" fill="#3B82F6"><animate attributeName="opacity" values="1;0.25;1" dur="3s" repeatCount="indefinite"/></circle><circle cx="588" cy="100" r="6" fill="none" stroke="#3B82F6" stroke-width="0.8" opacity="0.5"/><path d="M650 101 H680" stroke="#1B2440" stroke-width="1.2" stroke-dasharray="4 3"/><circle r="2" fill="#3B82F6"><animateMotion dur="2.5s" begin="0s" repeatCount="indefinite" path="M650 101 H680"/></circle><path d="M648 76 H902 L910 84 V118 L902 126 H648 L640 118 V84 Z" fill="#0E1424" stroke="#A78BFA" stroke-width="1.1"/><text x="658" y="98" font-family="Consolas,'Courier New',monospace" font-size="13" fill="#A78BFA" letter-spacing="3" text-anchor="start" font-weight="700">REPOS</text><text x="658" y="116" font-family="Consolas,'Courier New',monospace" font-size="9" fill="#8B99BB" letter-spacing="1.5" text-anchor="start" font-weight="400">browse.index</text><circle cx="888" cy="100" r="3" fill="#A78BFA"><animate attributeName="opacity" values="1;0.25;1" dur="4s" repeatCount="indefinite"/></circle><circle cx="888" cy="100" r="6" fill="none" stroke="#A78BFA" stroke-width="0.8" opacity="0.5"/><path d="M950 101 H1070" stroke="#1B2440" stroke-width="1.2" stroke-dasharray="4 3"/><circle r="2.2" fill="#7C3AED"><animateMotion dur="3s" begin="0s" repeatCount="indefinite" path="M950 101 H1070"/></circle><rect x="6" y="6" width="46" height="138" fill="url(#swpup)" opacity="0.55"><animate attributeName="x" values="6;1148;6" dur="10s" repeatCount="indefinite"/></rect></svg>