<svg xmlns="http://www.w3.org/2000/svg" viewBox="0 0 1200 262" width="1200" height="262" role="img" aria-label="Learning queue panel with progress bars"><defs><pattern id="glq" width="28" height="28" patternUnits="userSpaceOnUse"><path d="M28 0H0V28" fill="none" stroke="#3a1f52" stroke-width="0.6" opacity="0.5"/></pattern><pattern id="slq" width="4" height="4" patternUnits="userSpaceOnUse"><rect width="4" height="1" fill="#FFFFFF" opacity="0.02"/></pattern><linearGradient id="swplq" x1="0" y1="0" x2="1" y2="0"><stop offset="0" stop-color="#00E5FF" stop-opacity="0"/><stop offset="0.5" stop-color="#00E5FF" stop-opacity="0.10"/><stop offset="1" stop-color="#00E5FF" stop-opacity="0"/></linearGradient><linearGradient id="hdrlq" x1="0" y1="0" x2="1" y2="0"><stop offset="0" stop-color="#1d0f2e"/><stop offset="1" stop-color="#170b26"/></linearGradient></defs><path d="M14 2 H1186 L1198 14 V248 L1186 260 H14 L2 248 V14 Z" fill="#170b26" stroke="#ff71ce" stroke-width="1.3"/><rect x="2" y="2" width="1196" height="258" fill="url(#glq)" opacity="0.4"/><text x="24" y="32" font-family="Consolas,'Courier New',monospace" font-size="12" fill="#ff71ce" letter-spacing="3" text-anchor="start" font-weight="700">UPGRADE.QUEUE // SCHEDULED INSTALLS</text><text x="1176" y="32" font-family="Consolas,'Courier New',monospace" font-size="10" fill="#c9a0bf" letter-spacing="2" text-anchor="end" font-weight="400">PRIORITY: FIFO</text><path d="M20 44 H1180" stroke="#3a1f52" stroke-width="1" stroke-dasharray="5 4"/><path d="M30 58 H1170 L1176 64 V88 L1170 94 H30 L24 88 V64 Z" fill="#1d0f2e" stroke="#3a1f52" stroke-width="0.9"/><text x="40" y="81" font-family="Consolas,'Courier New',monospace" font-size="12" fill="#00E5FF" letter-spacing="2" text-anchor="start" font-weight="700">01</text><text x="78" y="81" font-family="Consolas,'Courier New',monospace" font-size="12" fill="#fff1e6" letter-spacing="1.5" text-anchor="start" font-weight="400">installing :: applied ai/ml</text><rect x="780" y="71" width="300" height="9" fill="#170b26" stroke="#3a1f52" stroke-width="0.6"/><rect x="780" y="71" width="204" height="9" fill="#00E5FF" opacity="0.85"><animate attributeName="width" values="204;246;204" dur="5s" repeatCount="indefinite"/></rect><text x="1104" y="81" font-family="Consolas,'Courier New',monospace" font-size="11" fill="#00E5FF" letter-spacing="1" text-anchor="start" font-weight="700">68%</text><circle cx="1156" cy="76" r="3" fill="#00E5FF"><animate attributeName="opacity" values="1;0.25;1" dur="2.0s" repeatCount="indefinite"/></circle><circle cx="1156" cy="76" r="6" fill="none" stroke="#00E5FF" stroke-width="0.8" opacity="0.5"/><path d="M30 104 H1170 L1176 110 V134 L1170 140 H30 L24 134 V110 Z" fill="#1d0f2e" stroke="#3a1f52" stroke-width="0.9"/><text x="40" y="127" font-family="Consolas,'Courier New',monospace" font-size="12" fill="#00E5FF" letter-spacing="2" text-anchor="start" font-weight="700">02</text><text x="78" y="127" font-family="Consolas,'Courier New',monospace" font-size="12" fill="#fff1e6" letter-spacing="1.5" text-anchor="start" font-weight="400">installing :: advanced typescript</text><rect x="780" y="117" width="300" height="9" fill="#170b26" stroke="#3a1f52" stroke-width="0.6"/><rect x="780" y="117" width="156" height="9" fill="#ff71ce" opacity="0.85"><animate attributeName="width" values="156;198;156" dur="6s" repeatCount="indefinite"/></rect><text x="1104" y="127" font-family="Consolas,'Courier New',monospace" font-size="11" fill="#ff71ce" letter-spacing="1" text-anchor="start" font-weight="700">52%</text><circle cx="1156" cy="122" r="3" fill="#ff71ce"><animate attributeName="opacity" values="1;0.25;1" dur="2.5s" repeatCount="indefinite"/></circle><circle cx="1156" cy="122" r="6" fill="none" stroke="#ff71ce" stroke-width="0.8" opacity="0.5"/><path d="M30 150 H1170 L1176 156 V180 L1170 186 H30 L24 180 V156 Z" fill="#1d0f2e" stroke="#3a1f52" stroke-width="0.9"/><text x="40" y="173" font-family="Consolas,'Courier New',monospace" font-size="12" fill="#00E5FF" letter-spacing="2" text-anchor="start" font-weight="700">03</text><text x="78" y="173" font-family="Consolas,'Courier New',monospace" font-size="12" fill="#fff1e6" letter-spacing="1.5" text-anchor="start" font-weight="400">installing :: frontend architecture</text><rect x="780" y="163" width="300" height="9" fill="#170b26" stroke="#3a1f52" stroke-width="0.6"/><rect x="780" y="163" width="114" height="9" fill="#00E5FF" opacity="0.85"><animate attributeName="width" values="114;156;114" dur="7s" repeatCount="indefinite"/></rect><text x="1104" y="173" font-family="Consolas,'Courier New',monospace" font-size="11" fill="#00E5FF" letter-spacing="1" text-anchor="start" font-weight="700">38%</text><circle cx="1156" cy="168" r="3" fill="#00E5FF"><animate attributeName="opacity" values="1;0.25;1" dur="3.0s" repeatCount="indefinite"/></circle><circle cx="1156" cy="168" r="6" fill="none" stroke="#00E5FF" stroke-width="0.8" opacity="0.5"/><path d="M30 196 H1170 L1176 202 V226 L1170 232 H30 L24 226 V202 Z" fill="#1d0f2e" stroke="#3a1f52" stroke-width="0.9"/><text x="40" y="219" font-family="Consolas,'Courier New',monospace" font-size="12" fill="#00E5FF" letter-spacing="2" text-anchor="start" font-weight="700">04</text><text x="78" y="219" font-family="Consolas,'Courier New',monospace" font-size="12" fill="#fff1e6" letter-spacing="1.5" text-anchor="start" font-weight="400">installing :: data &amp; api design</text><rect x="780" y="209" width="300" height="9" fill="#170b26" stroke="#3a1f52" stroke-width="0.6"/><rect x="780" y="209" width="81" height="9" fill="#ff71ce" opacity="0.85"><animate attributeName="width" values="81;123;81" dur="8s" repeatCount="indefinite"/></rect><text x="1104" y="219" font-family="Consolas,'Courier New',monospace" font-size="11" fill="#ff71ce" letter-spacing="1" text-anchor="start" font-weight="700">27%</text><circle cx="1156" cy="214" r="3" fill="#ff71ce"><animate attributeName="opacity" values="1;0.25;1" dur="3.5s" repeatCount="indefinite"/></circle><circle cx="1156" cy="214" r="6" fill="none" stroke="#ff71ce" stroke-width="0.8" opacity="0.5"/><rect x="6" y="50" width="46" height="202" fill="url(#swplq)" opacity="0.55"><animate attributeName="x" values="6;1148;6" dur="11s" repeatCount="indefinite"/></rect><defs><linearGradient id="duskf" x1="0" y1="0" x2="0" y2="1"><stop offset="0" stop-color="#f97b4f" stop-opacity="0"/><stop offset="1" stop-color="#f97b4f" stop-opacity="0.16"/></linearGradient></defs><g><rect x="6" y="216" width="1188" height="40" fill="url(#duskf)"/><g transform="translate(6,256) scale(1.9800,1)"><path d="M0 0 L0 -8 H36 V-14 H54 V-8 H98 V-18 H128 V-8 H180 V-22 H204 V-8 H264 V-14 H304 V-6 H320 V-14 H378 V-8 H448 V-20 H482 V-8 H530 V-16 H556 V-8 H600 L600 0 Z" fill="#0c0616" opacity="0.4"/><rect x="108" y="-13" width="5" height="3" fill="#ff8c42" opacity="0.5"/><rect x="456" y="-15" width="5" height="3" fill="#00E5FF" opacity="0.45"/></g></g></svg>