<svg width="900" height="96" viewBox="0 0 900 96" fill="none" xmlns="http://www.w3.org/2000/svg" role="img" aria-label="SYS.07 // TELEMETRY"><title>SYS.07 // TELEMETRY</title>
  <defs>
    <linearGradient id="bg" x1="0" y1="0" x2="0" y2="96" gradientUnits="userSpaceOnUse">
      <stop offset="0%" stop-color="#101530"/><stop offset="100%" stop-color="#0B0E1A"/>
    </linearGradient>
    <linearGradient id="g" x1="0%" y1="0%" x2="100%" y2="0%">
      <stop offset="0%" stop-color="#00E5FF"><animate attributeName="stop-color" values="#00E5FF;#4D8AFF;#00E5FF" dur="8s" repeatCount="indefinite"/></stop>
      <stop offset="100%" stop-color="#4D8AFF"><animate attributeName="stop-color" values="#4D8AFF;#00E5FF;#4D8AFF" dur="8s" repeatCount="indefinite"/></stop>
    </linearGradient>
    <pattern id="gp" width="28" height="28" patternUnits="userSpaceOnUse">
      <path d="M28 0H0V28" stroke="#16203D" stroke-width="1" fill="none" opacity="0.55"/>
    </pattern>
    <filter id="nz" x="0%" y="0%" width="100%" height="100%">
      <feTurbulence type="fractalNoise" baseFrequency="0.9" numOctaves="1" stitchTiles="stitch"/>
      <feColorMatrix type="matrix" values="0 0 0 0 0.4  0 0 0 0 0.7  0 0 0 0 1  0 0 0 0.06 0"/>
    </filter>
    <clipPath id="clip"><path d="M24 2 H876 L898 24 V72 L876 94 H24 L2 72 V24 Z"/></clipPath>
  </defs>

  <path d="M24 2 H876 L898 24 V72 L876 94 H24 L2 72 V24 Z" fill="url(#bg)"/>
  <g clip-path="url(#clip)">
    <rect width="900" height="96" fill="url(#gp)"/>
    <rect width="900" height="96" filter="url(#nz)"/>
    <text x="610" y="86" font-family="'Segoe UI', Arial, sans-serif" font-size="88" font-weight="900" letter-spacing="4" fill="none" stroke="#00E5FF" stroke-width="1.5" opacity="0.16">07</text>
    <path d="M900 22 H802 L784 40 H730" stroke="#00E5FF" stroke-width="1.5" opacity="0.7" stroke-dasharray="6 7">
      <animate attributeName="stroke-dashoffset" values="0;-52" dur="2.6s" repeatCount="indefinite"/>
    </path>
    <path d="M900 78 H818 L800 60 H758" stroke="#4D8AFF" stroke-width="1.5" opacity="0.5" stroke-dasharray="5 8">
      <animate attributeName="stroke-dashoffset" values="0;52" dur="3.4s" repeatCount="indefinite"/>
    </path>
    <circle cx="730" cy="40" r="3.5" fill="#00E5FF"><animate attributeName="opacity" values="1;0.25;1" dur="1.8s" repeatCount="indefinite" calcMode="spline" keySplines="0.4 0 0.6 1;0.4 0 0.6 1"/></circle>
    <circle cx="758" cy="60" r="3" fill="#4D8AFF"><animate attributeName="opacity" values="0.25;1;0.25" dur="1.8s" repeatCount="indefinite" calcMode="spline" keySplines="0.4 0 0.6 1;0.4 0 0.6 1"/></circle>
    <rect x="-120" y="0" width="70" height="96" fill="#00E5FF" opacity="0.08" transform="skewX(-22)">
      <animate attributeName="x" values="-120;980" dur="6s" repeatCount="indefinite"/>
    </rect>
    <rect x="0" y="0" width="900" height="2" fill="#00E5FF" opacity="0.18">
      <animate attributeName="y" values="0;94;0" dur="9s" repeatCount="indefinite"/>
    </rect>
  </g>

  <path d="M24 2 H876 L898 24 V72 L876 94 H24 L2 72 V24 Z" stroke="url(#g)" stroke-opacity="0.75" stroke-width="1.5"/>
  <g stroke="#00E5FF" stroke-width="2.5">
    <path d="M2 30 V24 L24 2 H30"/><path d="M870 2 H876 L898 24 V30"/>
    <path d="M898 66 V72 L876 94 H870"/><path d="M30 94 H24 L2 72 V66"/>
  </g>

  <rect x="34" y="20" width="4" height="56" rx="2" fill="url(#g)"><animate attributeName="opacity" values="1;0.4;1" dur="3s" repeatCount="indefinite" calcMode="spline" keySplines="0.4 0 0.6 1;0.4 0 0.6 1"/></rect>
  <rect x="42" y="20" width="2" height="56" rx="1" fill="#00E5FF" opacity="0.35"/>

  <text x="56" y="36" font-family="Consolas, 'Courier New', monospace" font-size="11" letter-spacing="3" fill="#6C7BA8">SYS.07 // TELEMETRY</text>
  <text x="56" y="68" font-family="'Segoe UI', Arial, sans-serif" font-size="26" font-weight="800" letter-spacing="5" fill="#F4F7FF">ACTIVITY</text>
  <rect x="56" y="76" width="160" height="3" rx="1.5" fill="url(#g)"><animate attributeName="width" values="160;90;160" dur="4s" repeatCount="indefinite"/></rect>

  <text x="846" y="30" text-anchor="end" font-family="Consolas, 'Courier New', monospace" font-size="10" letter-spacing="2" fill="#00E5FF">SIGNAL.FEED</text>
  <circle cx="862" cy="26" r="4" fill="#00E5FF"><animate attributeName="opacity" values="1;0.2;1" dur="1.5s" repeatCount="indefinite" calcMode="spline" keySplines="0.4 0 0.6 1;0.4 0 0.6 1"/></circle>
  <circle cx="862" cy="26" r="7" stroke="#00E5FF" stroke-width="1" fill="none" opacity="0.5">
    <animate attributeName="r" values="5;10" dur="1.5s" repeatCount="indefinite"/>
    <animate attributeName="opacity" values="0.6;0" dur="1.5s" repeatCount="indefinite"/>
  </circle>
</svg>
