<svg xmlns="http://www.w3.org/2000/svg" viewBox="0 0 1200 70" width="1200" height="70" role="img" aria-label="SYS.05 STACK.MANIFEST // TOOLING section header">
<defs>
<linearGradient id="skystack" x1="0" y1="0" x2="0" y2="1"><stop offset="0" stop-color="#241236"/><stop offset="0.35" stop-color="#4a2560"/><stop offset="0.65" stop-color="#93386b"/><stop offset="0.85" stop-color="#d9556a"/><stop offset="1" stop-color="#f97b4f"/></linearGradient>
<linearGradient id="edgestack" x1="0" y1="0" x2="1" y2="0"><stop offset="0" stop-color="#00E5FF"/><stop offset="0.5" stop-color="#ff3ea5"/><stop offset="1" stop-color="#ff8c42"/></linearGradient>
<filter id="glstack" x="-40%" y="-40%" width="180%" height="180%"><feGaussianBlur stdDeviation="2" result="b"/><feMerge><feMergeNode in="b"/><feMergeNode in="SourceGraphic"/></feMerge></filter>
</defs>
<path d="M14 2 H1186 L1198 14 V56 L1186 68 H14 L2 56 V14 Z" fill="url(#skystack)" stroke="#ff3ea5" stroke-width="1.4"/>
<g fill="#fff1e6"><circle cx="340" cy="12" r="1"><animate attributeName="opacity" values="1;0.2;1" dur="3.2s" repeatCount="indefinite"/></circle><circle cx="640" cy="9" r="1.1"><animate attributeName="opacity" values="0.3;1;0.3" dur="4.1s" repeatCount="indefinite"/></circle><circle cx="905" cy="14" r="1"><animate attributeName="opacity" values="1;0.25;1" dur="2.8s" repeatCount="indefinite"/></circle></g>
<path d="M2 68 V56 H42 V48 H66 V56 H120 V44 H156 V56 H230 V50 H300 V38 H326 V50 H420 V56 H520 V46 H560 V56 H700 V42 H736 V56 H840 V50 H930 V36 H958 V50 H1050 V56 H1120 V46 H1160 V56 H1198 V68 Z" fill="#170b26" opacity="0.9"/>
<g opacity="0.8"><rect x="308" y="43" width="5" height="3" fill="#00E5FF"/><rect x="740" y="47" width="5" height="3" fill="#ff8c42"/><rect x="938" y="41" width="5" height="3" fill="#ff71ce"><animate attributeName="opacity" values="1;0.2;1" dur="2.4s" repeatCount="indefinite"/></rect></g>
<g filter="url(#glstack)"><path d="M22 14 H196 L204 22 V48 L196 56 H22 L14 48 V22 Z" fill="#170b26" stroke="#ff3ea5" stroke-width="1.2"/><text x="28" y="40" font-family="Consolas,'Courier New',monospace" font-size="15" fill="#ff3ea5" letter-spacing="3" font-weight="700">SYS.05</text></g>
<circle cx="188" cy="35" r="3" fill="#ff3ea5"><animate attributeName="opacity" values="1;0.25;1" dur="2s" repeatCount="indefinite"/></circle><circle cx="188" cy="35" r="6" fill="none" stroke="#ff3ea5" stroke-width="0.8" opacity="0.5"/>
<text x="228" y="33" font-family="Consolas,'Courier New',monospace" font-size="19" font-weight="700" letter-spacing="2" fill="#fff1e6" filter="url(#glstack)">STACK.MANIFEST // TOOLING</text>
<text x="228" y="52" font-family="Consolas,'Courier New',monospace" font-size="11" letter-spacing="1.5" fill="#ffd9a0" opacity="0.9">inventory scan // drivers loaded</text>
<text x="1152" y="38" font-family="Consolas,'Courier New',monospace" font-size="12" fill="#22e06c" letter-spacing="2" text-anchor="end" filter="url(#glstack)">OK</text><circle cx="1166" cy="34" r="3" fill="#22e06c"><animate attributeName="opacity" values="1;0.3;1" dur="1.8s" repeatCount="indefinite"/></circle>
<rect x="14" y="64" width="1172" height="2" fill="url(#edgestack)" opacity="0.8"/>
</svg>
