<svg width="900" height="84" viewBox="0 0 900 84" fill="none" xmlns="http://www.w3.org/2000/svg" role="img" aria-label="CONNECT">
  <defs>
    <linearGradient id="g" x1="0%" y1="0%" x2="100%" y2="0%">
      <stop offset="0%" stop-color="#00E5FF"><animate attributeName="stop-color" values="#00E5FF;#7C3AED;#4D8AFF;#00E5FF" dur="8s" begin="0.7s" repeatCount="indefinite"/></stop>
      <stop offset="50%" stop-color="#7C3AED"><animate attributeName="stop-color" values="#7C3AED;#4D8AFF;#00E5FF;#7C3AED" dur="8s" begin="0.7s" repeatCount="indefinite"/></stop>
      <stop offset="100%" stop-color="#4D8AFF"><animate attributeName="stop-color" values="#4D8AFF;#00E5FF;#7C3AED;#4D8AFF" dur="8s" begin="0.7s" repeatCount="indefinite"/></stop>
    </linearGradient>
    <clipPath id="clip"><rect width="900" height="84" rx="10"/></clipPath>
  </defs>
  <rect width="900" height="84" rx="10" fill="#0B0E1A"/>
  <g clip-path="url(#clip)">
    <g stroke="#00E5FF" stroke-width="1" opacity="0.05">
      <line x1="0" y1="21" x2="900" y2="21"/><line x1="0" y1="42" x2="900" y2="42"/><line x1="0" y1="63" x2="900" y2="63"/>
      <line x1="100" y1="0" x2="100" y2="84"/><line x1="200" y1="0" x2="200" y2="84"/><line x1="300" y1="0" x2="300" y2="84"/><line x1="400" y1="0" x2="400" y2="84"/><line x1="500" y1="0" x2="500" y2="84"/><line x1="600" y1="0" x2="600" y2="84"/><line x1="700" y1="0" x2="700" y2="84"/><line x1="800" y1="0" x2="800" y2="84"/>
    </g>
    <circle cx="820" cy="20" r="34" fill="#7C3AED" opacity="0.07"><animate attributeName="cy" values="20;36;20" dur="7s" begin="0.7s" repeatCount="indefinite"/></circle>
    <rect x="-80" y="0" width="60" height="84" fill="#7C3AED" opacity="0.10" transform="skewX(-20)"><animate attributeName="x" values="-80;960" dur="5s" begin="0.7s" repeatCount="indefinite"/></rect>
  </g>
  <rect x="1" y="1" width="898" height="82" rx="9" stroke="url(#g)" stroke-opacity="0.6" stroke-width="1.5"/>
  <g stroke="#7C3AED" stroke-width="2">
    <path d="M14 26 V14 H26"/><path d="M874 14 H886 V26"/><path d="M14 58 V70 H26"/><path d="M874 70 H886 V58"/>
  </g>
  <rect x="36" y="18" width="4" height="48" rx="2" fill="url(#g)"><animate attributeName="opacity" values="1;0.4;1" dur="3s" begin="0.7s" repeatCount="indefinite"/></rect>
  <text x="54" y="30" font-family="Consolas, 'Courier New', monospace" font-size="11" letter-spacing="3" fill="#5E6B93">SYS.08 // UPLINK</text>
  <text x="54" y="60" font-family="'Segoe UI', Arial, sans-serif" font-size="26" font-weight="800" letter-spacing="5" fill="#F4F7FF">CONNECT</text>
  <rect x="54" y="68" width="210" height="3" rx="1.5" fill="url(#g)"><animate attributeName="width" values="210;120;210" dur="4s" begin="0.7s" repeatCount="indefinite"/></rect>
  <text x="852" y="46" text-anchor="end" font-family="Consolas, 'Courier New', monospace" font-size="11" letter-spacing="2" fill="#7C3AED">CHANNEL_OPEN</text>
  <circle cx="866" cy="42" r="4" fill="#7C3AED"><animate attributeName="opacity" values="1;0.25;1" dur="1.5s" begin="0.7s" repeatCount="indefinite"/></circle>
</svg>
