<svg xmlns="http://www.w3.org/2000/svg" viewBox="0 0 1200 70" width="1200" height="70" role="img" aria-label="SYS.05 STACK.MANIFEST // TOOLING section header"><defs><pattern id="gsectiontech" width="28" height="28" patternUnits="userSpaceOnUse"><path d="M28 0H0V28" fill="none" stroke="#1B2440" stroke-width="0.6" opacity="0.5"/></pattern><pattern id="ssectiontech" width="4" height="4" patternUnits="userSpaceOnUse"><rect width="4" height="1" fill="#FFFFFF" opacity="0.02"/></pattern><linearGradient id="swpsectiontech" x1="0" y1="0" x2="1" y2="0"><stop offset="0" stop-color="#00E5FF" stop-opacity="0"/><stop offset="0.5" stop-color="#00E5FF" stop-opacity="0.10"/><stop offset="1" stop-color="#00E5FF" stop-opacity="0"/></linearGradient><linearGradient id="hdrsectiontech" x1="0" y1="0" x2="1" y2="0"><stop offset="0" stop-color="#0E1424"/><stop offset="1" stop-color="#0B0E1A"/></linearGradient></defs><path d="M14 2 H1186 L1198 14 V56 L1186 68 H14 L2 56 V14 Z" fill="url(#hdrsectiontech)" stroke="#00E5FF" stroke-width="1.4"/><rect x="2" y="2" width="1196" height="66" fill="url(#gsectiontech)" opacity="0.5"/><rect x="2" y="2" width="1196" height="66" fill="url(#ssectiontech)"/><path d="M22 14 H196 L204 22 V48 L196 56 H22 L14 48 V22 Z" fill="#0B0E1A" stroke="#7C3AED" stroke-width="1"/><text x="28" y="40.0" font-family="Consolas,'Courier New',monospace" font-size="15" fill="#00E5FF" letter-spacing="3" text-anchor="start" font-weight="700">SYS.05</text><circle cx="188" cy="35.0" r="3" fill="#00E5FF"><animate attributeName="opacity" values="1;0.25;1" dur="2s" repeatCount="indefinite"/></circle><circle cx="188" cy="35.0" r="6" fill="none" stroke="#00E5FF" stroke-width="0.8" opacity="0.5"/><text x="228" y="32.0" font-family="Consolas,'Courier New',monospace" font-size="19" fill="#EAF6FF" letter-spacing="4" text-anchor="start" font-weight="700">STACK.MANIFEST // TOOLING</text><text x="228" y="51.0" font-family="Consolas,'Courier New',monospace" font-size="10" fill="#8B99BB" letter-spacing="2.5" text-anchor="start" font-weight="400">inventory scan // drivers loaded</text><path d="M870 35.0 H1160" stroke="#1B2440" stroke-width="1" stroke-dasharray="6 4"/><rect x="880" y="28.0" width="3" height="14" fill="#00E5FF" opacity="0.8"><animate attributeName="opacity" values="0.9;0.25;0.9" dur="2.0s" repeatCount="indefinite"/></rect><rect x="928" y="28.0" width="3" height="14" fill="#7C3AED" opacity="0.8"><animate attributeName="opacity" values="0.9;0.25;0.9" dur="2.4s" repeatCount="indefinite"/></rect><rect x="976" y="28.0" width="3" height="14" fill="#00E5FF" opacity="0.8"><animate attributeName="opacity" values="0.9;0.25;0.9" dur="2.8s" repeatCount="indefinite"/></rect><rect x="1024" y="28.0" width="3" height="14" fill="#7C3AED" opacity="0.8"><animate attributeName="opacity" values="0.9;0.25;0.9" dur="3.2s" repeatCount="indefinite"/></rect><rect x="1072" y="28.0" width="3" height="14" fill="#00E5FF" opacity="0.8"><animate attributeName="opacity" values="0.9;0.25;0.9" dur="3.6s" repeatCount="indefinite"/></rect><rect x="1120" y="28.0" width="3" height="14" fill="#7C3AED" opacity="0.8"><animate attributeName="opacity" values="0.9;0.25;0.9" dur="4.0s" repeatCount="indefinite"/></rect><circle r="2.2" fill="#00E5FF"><animateMotion dur="5s" begin="0s" repeatCount="indefinite" path="M870 35.0 H1160"/></circle><text x="1172" y="39.0" font-family="Consolas,'Courier New',monospace" font-size="11" fill="#00E5FF" letter-spacing="2" text-anchor="end" font-weight="700">OK</text><rect x="6" y="6" width="46" height="58" fill="url(#swpsectiontech)" opacity="0.55"><animate attributeName="x" values="6;1148;6" dur="9s" repeatCount="indefinite"/></rect></svg>